<svg width="48" height="47" viewBox="0 0 48 47" fill="none" xmlns="http://www.w3.org/2000/svg">
<path d="M26.2608 0C30.3051 0 33.7488 2.94902 34.3814 6.95401L37.1544 24.5003L28.3538 31.1187C32.2 31.2801 35.4262 34.1423 36.0282 37.9867L37.3871 46.667H19.0812V31.1112H16.9094V46.667H0V0H26.2608ZM28.0471 10.5778C25.7515 10.5778 23.8908 12.477 23.8908 14.8201C23.8908 17.1633 25.7515 19.0625 28.0471 19.0625C30.3428 19.0625 32.2035 17.1633 32.2035 14.8201C32.2035 12.477 30.3428 10.5778 28.0471 10.5778ZM43.0949 10.5778C45.3905 10.5778 47.2513 12.477 47.2513 14.8201C47.2513 17.1628 45.3905 19.0625 43.0949 19.0625C40.7993 19.0625 38.9386 17.1633 38.9386 14.8201C38.9386 12.477 40.7993 10.5778 43.0949 10.5778Z" fill="#1F1F1F"/>
</svg>
